<svg width="55" height="56" viewBox="0 0 55 56" fill="none" xmlns="http://www.w3.org/2000/svg">
<path d="M48.0035 19.2385C47.9804 17.5028 47.6555 15.7844 47.0433 14.1601C46.5124 12.7901 45.7016 11.5458 44.6627 10.5068C43.6237 9.46786 42.3794 8.65704 41.0093 8.12617C39.406 7.52428 37.712 7.19883 35.9998 7.16367C33.7952 7.06513 33.0962 7.03763 27.5 7.03763C21.9037 7.03763 21.1864 7.03763 18.9979 7.16367C17.2864 7.19909 15.5933 7.52453 13.9906 8.12617C12.6203 8.65667 11.3759 9.46736 10.3368 10.5064C9.29783 11.5454 8.48714 12.7898 7.95664 14.1601C7.35355 15.7623 7.0288 17.4558 6.99644 19.1674C6.89789 21.3743 6.8681 22.0733 6.8681 27.6695C6.8681 33.2658 6.8681 33.9808 6.99644 36.1716C7.03081 37.8858 7.35394 39.577 7.95664 41.1835C8.48803 42.5533 9.29932 43.7973 10.3387 44.8359C11.378 45.8744 12.6226 46.6848 13.9929 47.2151C15.5912 47.8412 17.2846 48.19 19.0002 48.2464C21.2071 48.3449 21.906 48.3747 27.5023 48.3747C33.0985 48.3747 33.8158 48.3747 36.0043 48.2464C37.7166 48.2127 39.4106 47.888 41.0139 47.2862C42.3836 46.7547 43.6276 45.9437 44.6665 44.9048C45.7054 43.8659 46.5164 42.6219 47.0479 41.2522C47.6506 39.648 47.9737 37.9568 48.0081 36.2403C48.1066 34.0358 48.1364 33.3368 48.1364 27.7383C48.1318 22.142 48.1318 21.4316 48.0035 19.2385ZM27.4862 38.2524C21.6333 38.2524 16.8919 33.511 16.8919 27.658C16.8919 21.8051 21.6333 17.0637 27.4862 17.0637C30.296 17.0637 32.9907 18.1799 34.9776 20.1667C36.9644 22.1535 38.0806 24.8482 38.0806 27.658C38.0806 30.4678 36.9644 33.1626 34.9776 35.1494C32.9907 37.1362 30.296 38.2524 27.4862 38.2524ZM38.5023 19.1422C38.1778 19.1425 37.8564 19.0788 37.5565 18.9548C37.2567 18.8307 36.9842 18.6488 36.7547 18.4193C36.5253 18.1899 36.3433 17.9174 36.2193 17.6175C36.0952 17.3177 36.0315 16.9963 36.0318 16.6718C36.0318 16.3475 36.0957 16.0264 36.2198 15.7268C36.3439 15.4273 36.5258 15.155 36.7551 14.9258C36.9844 14.6965 37.2566 14.5146 37.5562 14.3905C37.8558 14.2664 38.1769 14.2025 38.5011 14.2025C38.8254 14.2025 39.1465 14.2664 39.4461 14.3905C39.7457 14.5146 40.0179 14.6965 40.2472 14.9258C40.4765 15.155 40.6583 15.4273 40.7824 15.7268C40.9065 16.0264 40.9704 16.3475 40.9704 16.6718C40.9704 18.0376 39.8658 19.1422 38.5023 19.1422Z" fill="#F5B02C"/>
<path d="M27.4862 34.5399C31.287 34.5399 34.3681 31.4588 34.3681 27.6581C34.3681 23.8573 31.287 20.7762 27.4862 20.7762C23.6855 20.7762 20.6044 23.8573 20.6044 27.6581C20.6044 31.4588 23.6855 34.5399 27.4862 34.5399Z" fill="#F5B02C"/>
</svg>
