<svg width="61" height="61" viewBox="0 0 61 61" fill="none" xmlns="http://www.w3.org/2000/svg">
<path d="M8.70157 29.4375C7.39376 27.5578 6.86876 25.7859 8.14845 24.7125C9.23126 23.8031 10.825 23.6297 12.7938 25.9031C12.7938 25.9031 18.6766 32.7375 20.7016 34.6359C21.1609 35.0625 21.7328 35.1281 22.2531 34.589C22.6938 34.1297 22.5344 33.7312 22.1594 33.1828C22.1594 33.1828 13.8672 20.8547 12.7797 19.35C10.9656 16.8328 11.6641 15.2062 12.5031 14.4328C13.6703 13.35 15.7234 13.1344 17.6313 15.75L27.6719 29.189C27.9766 29.5125 28.4688 29.5594 28.8297 29.3062L28.9703 29.2078C29.3406 28.9453 29.4484 28.4437 29.2234 28.05C27.4656 24.989 20.4719 12.7922 19.4453 10.5703C18.2641 8.00623 18.7703 6.70311 20.0219 5.94842C21.5078 5.05311 22.9047 5.11873 24.5734 7.59842C26.3828 10.2984 33.4094 21.6656 35.1953 24.7219C35.4297 25.1203 35.9313 25.2703 36.3438 25.0687C36.3484 25.064 36.3578 25.064 36.3625 25.0594C36.7563 24.8672 37.1125 24.4781 36.9485 23.925C35.9734 20.7094 31.1875 10.6969 30.1844 8.3953C28.8109 5.24998 29.4813 4.18123 30.9016 3.45936C32.3922 2.70467 33.9438 3.29998 34.9984 5.39998C35.7109 6.82498 48.2219 29.5922 48.2219 29.5922C48.0391 26.1984 48.8969 23.7937 49.6281 21.3797C50.9594 16.9875 54.1797 14.7047 56.5141 15.7312C57.7281 16.2656 57.9484 17.3297 57.8172 18.1453C57.5547 19.7297 56.4391 24.6375 56.2234 28.4812C55.7172 37.4906 58.4406 47.8734 48.2922 54.3984C41.5 58.7672 34.2203 57.9984 29.4109 54.6375C23.5797 50.564 9.77032 30.975 8.70157 29.4375Z" fill="#FFCA28"/>
<path d="M55.6281 24.3234C54.7797 27.8906 54.6672 32.2687 54.6953 34.1343C54.8078 41.4046 54.7703 47.6953 47.4813 53.4421C46.586 54.1499 43.7781 55.8749 40.5109 56.7749C39.4609 57.0609 39.8594 57.3984 40.5063 57.3234C44.0735 56.9109 46.7781 55.3734 48.2828 54.4031C58.4266 47.8781 55.9328 37.5656 56.4391 28.5562C56.6547 24.7124 57.8266 18.6656 57.8078 18.1453C57.7844 17.6249 56.4766 20.7562 55.6281 24.3234ZM36.8078 24.6984C36.8078 24.6984 36.0813 24.7031 35.3922 23.7421C33.325 20.8687 26.8422 10.0171 24.9766 7.35463C22.8485 4.31713 20.8656 5.47963 20.4156 5.72338C20.4156 5.72338 22.0469 5.77963 22.9469 7.11557C24.7844 9.839 31.75 22.0453 33.9485 24.6656C35.3688 26.3578 36.8078 24.6984 36.8078 24.6984ZM11.111 25.6218C11.7485 26.3062 17.3453 32.9484 19.4078 34.7999C21.1797 36.389 22.5016 34.364 22.5016 34.364C22.5016 34.364 21.85 34.4531 20.9594 33.7828C18.7469 32.1093 13.5063 26.1421 12.325 24.8859C10.5719 23.0203 8.94064 24.1874 8.59377 24.3984C8.59845 24.3984 9.60158 24.0093 11.111 25.6218ZM29.336 28.7718C29.336 28.7718 28.736 29.2078 27.6344 27.9187C26.8328 26.9765 17.6313 15.7499 17.6313 15.7499C15.325 12.9328 13.511 13.7718 13.136 13.9874C13.136 13.9874 14.2938 13.9265 15.6485 15.4874C16.2672 16.1999 26.0875 28.7203 26.4813 29.1468C27.9203 30.7171 29.2516 29.3671 29.336 28.7718Z" fill="#EDA600"/>
<path d="M48.1844 27.164C48.1844 27.164 35.9922 6.72181 35.2141 5.32962C33.4844 2.24056 31.4735 3.18744 31.1313 3.34212C31.1313 3.34212 32.2516 3.02337 33.5688 5.264C34.2719 6.45462 43.2297 22.5609 46.0891 27.7077C46.3141 28.6687 46.2953 29.9202 45.5735 30.7265C42.986 33.6281 39.686 36.5906 40.6563 43.9359C40.9 45.7968 41.5891 47.5593 42.1 48.4077C42.7469 49.4718 43.4922 49.0687 43.1641 48.2718C42.9438 47.7327 42.5922 46.4624 42.5219 45.9187C42.1938 43.3874 41.0875 38.9624 46.0469 33.6562C46.886 32.7702 49.0188 30.0937 48.1844 27.164Z" fill="#EDA600"/>
<path d="M48.9766 14.5687C48.325 12.2578 47.3125 10.139 46 8.30155C44.8188 6.64686 43.3891 5.22186 41.7578 4.07811C41.5516 3.9328 41.2891 3.4828 41.5141 3.04686C41.7391 2.61092 42.2266 2.66717 42.4094 2.74217C44.4484 3.58124 46.1172 5.02967 47.4953 7.01717C49.1313 9.37967 49.9422 11.6062 50.3594 14.0953C50.4063 14.3672 50.3969 14.939 49.8156 15.089C49.2391 15.239 49.0422 14.7937 48.9766 14.5687ZM45.7891 17.0484C45.1375 14.7375 44.125 12.6187 42.8125 10.7812C41.6313 9.12655 40.2016 7.70155 38.5703 6.5578C38.3641 6.41249 38.1016 5.96249 38.3266 5.52655C38.5516 5.08592 39.0391 5.14686 39.2219 5.22186C41.2609 6.06092 42.9297 7.50936 44.3078 9.49686C45.9438 11.8594 46.7547 14.0859 47.1719 16.575C47.2188 16.8469 47.2094 17.4187 46.6281 17.5687C46.0563 17.7187 45.8547 17.2781 45.7891 17.0484ZM4.47813 36.3656C5.28438 38.6297 6.43282 40.6734 7.86251 42.4219C9.15157 43.9922 10.6703 45.3234 12.3719 46.3594C12.5875 46.4906 12.8781 46.9219 12.6813 47.3719C12.4844 47.8265 11.9969 47.7984 11.8047 47.7375C9.71407 47.0344 7.95157 45.6984 6.44688 43.8047C4.66095 41.5547 3.70001 39.389 3.11876 36.9328C3.05313 36.6609 3.02501 36.0937 3.59688 35.9062C4.16876 35.7187 4.39845 36.1453 4.47813 36.3656ZM7.4922 33.6797C8.29845 35.9437 9.44688 37.9875 10.8766 39.7359C12.1656 41.3062 13.6844 42.6375 15.3859 43.6734C15.6016 43.8047 15.8922 44.2359 15.6953 44.6859C15.4984 45.1406 15.0109 45.1125 14.8188 45.0515C12.7281 44.3484 10.9656 43.0125 9.46095 41.1187C7.67501 38.8687 6.71407 36.7031 6.13282 34.2469C6.0672 33.975 6.03907 33.4078 6.61095 33.2203C7.18282 33.0281 7.41251 33.4594 7.4922 33.6797Z" fill="#E6EAEE"/>
</svg>
