<svg width="47" height="48" viewBox="0 0 47 48" fill="none" xmlns="http://www.w3.org/2000/svg">
<g clip-path="url(#clip0_3_8409)">
<path d="M23.5 0.206177C36.4838 0.206177 47 10.7224 47 23.7062C46.9987 28.63 45.4534 33.4295 42.5815 37.4291C39.7096 41.4286 35.6558 44.4269 30.9906 46.0018C29.8156 46.2368 29.375 45.5024 29.375 44.8856C29.375 44.0924 29.4044 41.5662 29.4044 38.4231C29.4044 36.2199 28.67 34.8099 27.8181 34.0756C33.0469 33.4881 38.54 31.4906 38.54 22.4724C38.54 19.8874 37.6294 17.8018 36.1313 16.1568C36.3663 15.5693 37.1888 13.1606 35.8963 9.9293C35.8963 9.9293 33.9281 9.28305 29.4338 12.3381C27.5538 11.8093 25.5563 11.5449 23.5588 11.5449C21.5613 11.5449 19.5638 11.8093 17.6838 12.3381C13.1894 9.31243 11.2213 9.9293 11.2213 9.9293C9.92875 13.1606 10.7513 15.5693 10.9863 16.1568C9.48813 17.8018 8.5775 19.9168 8.5775 22.4724C8.5775 31.4612 14.0413 33.4881 19.27 34.0756C18.5944 34.6631 17.9775 35.6912 17.7719 37.2187C16.4206 37.8356 13.0425 38.8343 10.9275 35.2799C10.4869 34.5749 9.165 32.8418 7.31438 32.8712C5.34625 32.9006 6.52125 33.9874 7.34375 34.4281C8.3425 34.9862 9.48813 37.0718 9.7525 37.7474C10.2225 39.0693 11.75 41.5956 17.6544 40.5087C17.6544 42.4768 17.6838 44.3274 17.6838 44.8856C17.6838 45.5024 17.2431 46.2074 16.0681 46.0018C11.3876 44.4439 7.31653 41.4517 4.43237 37.4497C1.5482 33.4477 -0.00258641 28.6392 3.23804e-06 23.7062C3.23804e-06 10.7224 10.5163 0.206177 23.5 0.206177Z" fill="#F5B02C"/>
</g>
<defs>
<clipPath id="clip0_3_8409">
<rect width="47" height="47" fill="white" transform="translate(0 0.206177)"/>
</clipPath>
</defs>
</svg>
