<svg width="51" height="51" viewBox="0 0 51 51" fill="none" xmlns="http://www.w3.org/2000/svg">
<path fill-rule="evenodd" clip-rule="evenodd" d="M9.875 3.33118C8.2174 3.33118 6.62769 3.98966 5.45558 5.16176C4.28348 6.33386 3.625 7.92357 3.625 9.58118V40.8312C3.625 42.4888 4.28348 44.0785 5.45558 45.2506C6.62769 46.4227 8.2174 47.0812 9.875 47.0812H41.125C42.7826 47.0812 44.3723 46.4227 45.5444 45.2506C46.7165 44.0785 47.375 42.4888 47.375 40.8312V9.58118C47.375 7.92357 46.7165 6.33386 45.5444 5.16176C44.3723 3.98966 42.7826 3.33118 41.125 3.33118H9.875ZM13.3188 16.7593C14.3092 16.7593 15.259 16.3659 15.9594 15.6655C16.6597 14.9652 17.0531 14.0153 17.0531 13.0249C17.0531 12.0345 16.6597 11.0847 15.9594 10.3843C15.259 9.68399 14.3092 9.29055 13.3188 9.29055C12.3283 9.29055 11.3785 9.68399 10.6781 10.3843C9.97782 11.0847 9.58438 12.0345 9.58438 13.0249C9.58438 14.0153 9.97782 14.9652 10.6781 15.6655C11.3785 16.3659 12.3283 16.7593 13.3188 16.7593ZM16.4438 40.2468V19.6874H10.1937V40.2468H16.4438ZM20.5938 19.6874H26.8438V22.4406C27.7656 20.9968 29.7906 19.0531 33.5562 19.0531C38.05 19.0531 40.4906 22.0312 40.4906 27.6968C40.4906 27.9687 40.5156 29.2093 40.5156 29.2093V40.2437H34.2656V29.2124C34.2656 27.6968 33.9469 24.7187 30.5781 24.7187C27.2062 24.7187 26.9219 28.4624 26.8438 30.9124V40.2437H20.5938V19.6874Z" fill="#F5B02C"/>
</svg>
