<svg width="56" height="56" viewBox="0 0 56 56" fill="none" xmlns="http://www.w3.org/2000/svg">
<path d="M39.6664 29.3768H33.4131C30.8698 29.3768 28.8864 27.3935 28.8864 24.8501V21.3733C28.8864 18.83 30.8698 16.8467 33.4131 16.8467H36.8897C39.3864 16.8467 41.4164 18.8767 41.4164 21.3733V27.6034C41.4164 28.5834 40.6231 29.3768 39.6664 29.3768ZM33.4131 20.3467C32.6664 20.3467 32.3864 20.9067 32.3864 21.3733V24.8501C32.3864 25.3168 32.6431 25.8768 33.4131 25.8768H37.9164V21.3967C37.9164 20.8367 37.4497 20.37 36.8897 20.37H33.4131V20.3467Z" fill="#FFCA28"/>
<path d="M34.7899 39.1536C34.1832 39.1536 33.5999 38.8502 33.2732 38.2902C32.7832 37.4502 33.0632 36.3769 33.8799 35.8869C37.0532 33.9969 37.9166 33.507 37.9166 27.627C37.9166 26.6703 38.7099 25.877 39.6666 25.877C40.6232 25.877 41.4166 26.6703 41.4166 27.627C41.4166 34.8136 39.8532 36.4235 35.6766 38.8969C35.3966 39.0602 35.0932 39.1536 34.7899 39.1536Z" fill="#FFCA28"/>
<path d="M25.3405 29.3768H19.0872C16.5439 29.3768 14.5605 27.3935 14.5605 24.8501V21.3733C14.5605 18.83 16.5439 16.8467 19.0872 16.8467H22.5639C25.0605 16.8467 27.0905 18.8767 27.0905 21.3733V27.6034C27.0905 28.5834 26.3205 29.3768 25.3405 29.3768ZM19.1105 20.3467C18.3639 20.3467 18.0839 20.9067 18.0839 21.3733V24.8501C18.0839 25.3168 18.3405 25.8768 19.1105 25.8768H23.6139V21.3967C23.6139 20.8367 23.1472 20.37 22.5872 20.37H19.1105V20.3467Z" fill="#FFCA28"/>
<path d="M20.4629 39.1536C19.8563 39.1536 19.2729 38.8502 18.9463 38.2902C18.4563 37.4502 18.7363 36.3769 19.553 35.8869C22.7263 33.9969 23.5896 33.507 23.5896 27.627C23.5896 26.6703 24.3829 25.877 25.3396 25.877C26.2963 25.877 27.0896 26.6703 27.0896 27.627C27.0896 34.8136 25.5263 36.4235 21.3496 38.8969C21.0696 39.0602 20.7663 39.1536 20.4629 39.1536Z" fill="#FFCA28"/>
</svg>
